<svg xmlns="http://www.w3.org/2000/svg" width="1683" height="1122"><clipPath id="a"><path d="M0 0h1683v1122H0z"/></clipPath><g clip-path="url(#a)"><path fill="#ffa73b" d="M1795.086 690.31v128.588l-111.285-64.279v-.056z"/><path fill="#0c2e3a" d="M1683.8 754.757v128.308l-.111.055-111.1-64.168z"/><path fill="#78001b" d="M1683.8 754.563v.194l-111.215 64.2-.083-.056V690.31z"/><path fill="#ffa73b" d="M1683.794 497.553v128.591l-111.284-64.279v-.055z"/><path fill="#f5340b" d="M1683.794 626.144v.1l-111.146 64.154-.139-.083v-128.45z"/><path fill="#f5340b" d="M1683.793 626.241v128.322l-111.146-64.172z"/><path fill="#ff823b" d="m1794.981 690.368-111.188 64.2V626.241l.083-.042z"/><path fill="#018790" d="M1683.794 883.066v128.585l-111.284-64.279v-.055zm0 128.586v.1l-111.146 64.154-.139-.083v-128.45z"/><path fill="#e3651d" d="M1683.793 1011.749v128.322l-111.146-64.167z"/><path fill="#ffa73b" d="M1795.092 947.317v.194l-111.216 64.2-.083-.055v-128.59zm-.006-257.007v128.588l-111.285-64.279v-.056z"/><path fill="#00a6a6" d="m1683.69 883.124-111.187 64.2v-128.33l.083-.042z"/><path fill="#0c2e3a" d="M1683.8 754.757v128.308l-.111.055-111.1-64.168z"/><path fill="#ffa73b" d="M1683.8 754.563v.194l-111.215 64.2-.083-.056V690.31z"/><g fill="#78001b"><path d="M1572.503 690.31v128.588l-111.285-64.279v-.056z"/><path d="M1572.503 818.897v.1l-111.146 64.154-.139-.083v-128.45zm111.298-64.334v.194l-111.215 64.2-.083-.056V690.31zm-222.584.194v128.308l-.111.055-111.1-64.168z"/></g><path fill="#f5340b" d="M1461.217 754.563v.194l-111.215 64.2-.083-.056V690.31z"/><path fill="#1dcdc3" d="M1461.211 497.553v128.591l-111.285-64.279v-.055z"/><path fill="#0c2e3a" d="M1461.211 626.144v.1l-111.146 64.154-.138-.083v-128.45z"/><path fill="#0c2e3a" d="M1461.208 626.241v128.322l-111.144-64.172z"/><path fill="#018790" d="m1572.398 690.368-111.187 64.2V626.241l.083-.042zm.111-128.364v128.308l-.111.055-111.1-64.168zm-39.463-264.127v37.256l-.032.016-32.26-18.632z"/><path fill="#1dcdc3" d="M1572.509 433.167v.194l-111.215 64.2-.083-.055v-128.59z"/><path fill="#78001b" d="M1461.211 883.066v128.585l-111.285-64.279v-.055zm0 128.586v.1l-111.146 64.154-.138-.083v-128.45z"/><path fill="#00a6a6" d="M1461.208 1011.749v128.322l-111.144-64.167zm111.19 64.126-111.187 64.2v-128.326l.083-.042z"/><path fill="#0c2e3a" d="M1572.509 947.512v128.308l-.111.056-111.1-64.168z"/><path fill="#0c2e3a" d="M1572.509 947.317v.194l-111.215 64.2-.083-.055v-128.59z"/><path fill="#f5340b" d="M1572.503 690.31v128.588l-111.285-64.279v-.056z"/><path fill="#f5340b" d="M1572.503 818.897v.1l-111.146 64.154-.139-.083v-128.45z"/><path fill="#00a6a6" d="M1572.505 818.994v128.323l-111.148-64.17z"/><path fill="#ff823b" d="m1683.691 883.124-111.187 64.2v-128.33l.083-.042z"/><path fill="#ffa73b" d="M1683.801 754.563v.194l-111.215 64.2-.083-.056V690.31z"/><path fill="#f5340b" d="m1461.106 883.124-111.188 64.2v-128.33l.083-.042zm.111-128.367v128.308l-.111.055-111.1-64.168z"/><path fill="none" d="M1461.217 754.563v.194l-111.215 64.2-.083-.056V690.31z"/><path fill="#f5340b" d="M1349.918 690.309v128.588l-111.284-64.279v-.056z"/><path fill="#e3651d" d="M1349.918 818.896v.1l-111.146 64.154-.139-.083v-128.45z"/><path fill="#ffa73b" d="M1461.217 754.562v.194l-111.215 64.2-.083-.056V690.309z"/><path fill="#ffd497" d="M1238.627 497.553v128.591l-111.289-64.28v-.055z"/><path fill="#ff823b" d="m1349.815 690.367-111.184 64.2V626.24l.083-.042zm-187.028.007-51.927 29.981v-59.924l.039-.02z"/><path fill="#ffd497" d="m1161.853 507.471-35.47 20.479v-40.937l.026-.013z"/><path fill="#ff823b" d="M1349.926 562.003v128.308l-.111.055-111.1-64.168z"/><path fill="#ffa73b" d="M1349.931 561.809v.194l-111.215 64.2-.083-.055V497.553z"/><path fill="#ff7c4e" d="M1238.627 883.066v128.585l-111.289-64.279v-.055z"/><path fill="#f54132" d="m1349.815 1075.875-111.184 64.196v-128.322l.083-.042zm-222.473 0-111.187 64.2v-128.326l.083-.042z"/><path fill="#f54132" d="M1349.926 947.512v128.308l-.111.056-111.1-64.168z"/><path fill="#f54132" d="M1349.931 947.317v.194l-111.215 64.2-.083-.055v-128.59z"/><path fill="#ffa73b" d="M1349.918 690.31v128.588l-111.284-64.279v-.056z"/><path fill="#ffa73b" d="M1349.918 818.897v.1l-111.146 64.154-.139-.083v-128.45z"/><path fill="#e3651d" d="M1349.918 818.994v128.323l-111.146-64.17z"/><path fill="#78001b" d="m1461.106 883.124-111.188 64.2v-128.33l.083-.042z"/><path fill="#ffa73b" d="M1461.217 754.563v.194l-111.215 64.2-.083-.056V690.31z"/></g></svg>